<svg width="1920" height="1080" viewBox="0 0 1920 1080" xmlns="http://www.w3.org/2000/svg"><rect width="1920" height="1080" fill="#cccccc"/><path d="M1337.2993534076481,584.9999999999999C1343.7993534076481,625.6585110521502,1360.6897901592934,698.9339206144639,1341.5795466159752,730.5262411534251C1322.469303072657,762.1185616923863,1269.4358971951813,746.3672644908905,1222.6378921477392,774.5539232337668C1175.8398871002971,802.740581976643,1107.2641939768405,877.084858266908,1060.7915163313223,899.6461936106825C1014.3188386858042,922.2075289544571,974.4378691608124,931.2128089554665,943.80182627463,909.9219352964144C913.1657833884476,888.6310616373623,923.5057922084335,806.0172313991606,876.9752590142276,771.9009516563701C830.4447258200217,737.7846719135797,709.7487286576288,722.0466014396236,664.6186271093948,705.2242568396719C619.4885255611607,688.4019122397201,591.8481003576898,702.3674851850412,606.194649724823,670.9668840566599C620.5411990919562,639.5662829282785,717.1462419480898,572.3850423471064,750.6979233121942,516.8206500693835C784.2496046762986,461.2562577916607,791.9726401560227,354.40922514098105,807.5047379094492,337.5805303903226C823.0368356628757,320.7518356396642,823.3409951052229,417.7074854819052,843.890509832753,415.8484815654331C864.4400245602831,413.98947764896093,891.302426608667,344.21873923046286,930.8018262746297,326.42650689148957C970.3012259405923,308.6342745525163,1024.6998826435383,297.7066555531914,1080.8869078285286,309.0950875315932C1137.0739330135189,320.483519509995,1230.9752042533305,365.1770842104121,1267.9239773845716,394.75709876190047C1304.8727505158126,424.33711331338884,1291.0169839454625,454.86802463417365,1302.5795466159752,486.5751748405236C1314.142109286488,518.2823250468734,1330.7993534076481,544.3414889478496,1337.2993534076481,584.9999999999999C1343.7993534076481,625.6585110521502,1360.6897901592934,698.9339206144639,1341.5795466159752,730.5262411534251" fill="#000000"/></svg>