<svg width="1920" height="1080" viewBox="0 0 1920 1080" xmlns="http://www.w3.org/2000/svg"><rect width="1920" height="1080" fill="#d6dbdc"/><path d="M1387,594.9999999999999C1390.4283535679178,640.6754137178083,1390.6111144421277,657.7463562277546,1350.5795466159752,700.5262411534251C1310.5479787898228,743.3061260790955,1190.2602886639806,810.9926508111466,1146.8105930430856,851.6793095540229C1103.3608974221906,892.3659682968992,1122.3828340186813,926.9081015914054,1089.8813728906052,944.6461936106825C1057.3799117625292,962.3842856299597,991.7409624164327,962.255639534939,951.80182627463,958.1078616696859C911.8626901328273,953.9600838044329,874.2143640593773,945.5409250958327,850.2465560397889,919.7595264191646C826.2787480202004,893.9781277424964,847.0036292095933,855.0275479753187,807.994978157099,803.4194696096774C768.9863271046047,751.8113912440361,627.2139513858003,658.0582142222519,616.194649724823,610.1110562253166C605.1753480638456,562.1638982283813,734.9751719604726,553.8112712559433,741.8791681912345,515.7365216280655C748.7831644219964,477.6617720001876,646.0151551412671,428.9118997992543,657.6186271093947,381.6625584580493C669.2220990775222,334.41321711684435,756.3600644984914,234.5170923641642,811.4999999999998,232.2404735808356C866.6399355015081,229.96385479750703,946.3761697295763,348.38325625991513,988.4582401184451,368.00284575807774C1030.540310507314,387.62243525624035,1026.3937572495709,367.4050364551612,1063.9924223332125,349.9580105698111C1101.5910874168542,332.510984684461,1169.7140634744187,250.56806573318312,1214.0502306202945,263.32069044597705C1258.3863977661704,276.073315158771,1301.184463645184,371.19387392090414,1330.0094252084682,426.47375884657464C1358.8343867717524,481.75364377224514,1383.5716464320822,549.3245862821915,1387,594.9999999999999C1390.4283535679178,640.6754137178083,1390.6111144421277,657.7463562277546,1350.5795466159752,700.5262411534251" fill="#000000"/></svg>