<svg width="1920" height="1080" viewBox="0 0 1920 1080" xmlns="http://www.w3.org/2000/svg"><rect width="1920" height="1080" fill="#d6dbdc"/><path d="M1264.2187558112655,550.9999999999999C1247.37207801505,592.0251507099608,1215.9440017410984,649.3355562337307,1196.111163298199,676.6246631063406C1176.2783248552996,703.9137699789504,1168.387572237577,673.7310528182686,1145.2217251538693,714.734641235659C1122.0558780701617,755.7382296530493,1093.3527306091605,917.4962276122719,1057.1160807959538,922.6461936106825C1020.8794309827473,927.7961596090931,973.2378397406223,755.2822150913756,927.80182627463,745.6344372261226C882.3658128086377,735.9866593608696,826.6971998608726,856.4620210219055,784.5000000000001,864.7595264191646C742.3028001391276,873.0570318164237,693.5947920878809,835.5515766700948,674.6186271093948,795.4194696096774C655.6424621309086,755.28736254926,669.9262253384138,671.3646096677161,670.643010129083,623.9668840566599C671.3597949197522,576.5691584456036,679.9233996900248,559.9308415543966,678.9193358534101,511.03311594334036C677.9152720167954,462.13539033228415,637.9214682833242,375.7126374507401,664.6186271093947,330.5805303903226C691.3157859354651,285.44842332990515,787.9663918093581,233.83637248996914,839.1022888098331,240.2404735808356C890.2381858103081,246.6445746717021,927.3041617654492,350.14254540795093,971.4340091122446,369.00513693552153C1015.5638564590399,387.86772846309213,1061.072041177844,368.3634304945168,1103.8813728906052,353.4160227462594C1146.6907046033664,338.46861499800195,1196.0716898579974,266.47773442925785,1228.2899993888118,279.32069044597705C1260.5083089196262,292.16364646269625,1291.2031040050829,385.19387392090414,1297.1912300754918,430.47375884657464C1303.1793561459008,475.75364377224514,1281.065433607481,509.9748492900389,1264.2187558112655,550.9999999999999C1247.37207801505,592.0251507099608,1215.9440017410984,649.3355562337307,1196.111163298199,676.6246631063406" fill="#000000"/></svg>