<svg width="1920" height="1080" viewBox="0 0 1920 1080" xmlns="http://www.w3.org/2000/svg"><rect width="1920" height="1080" fill="#d6dbdc"/><path d="M1339,544.9999999999999C1347.1666666666667,580.138685979619,1368.4255503852132,615.5964713212651,1356.5795466159752,649.3058747242898C1344.7335428467372,683.0152781273144,1312.8736730054668,712.9503159972702,1267.9239773845718,747.256420418148C1222.9742817636768,781.5625248390257,1140.106766354293,817.8609528587308,1086.8813728906052,855.1425012495565C1033.6559794269174,892.4240496403822,997.8018454175452,961.3428732348345,948.5716166024444,970.9457107631025C899.3413877873435,980.5485482913705,820.9090328239608,947.2874242908001,791.5000000000001,912.7595264191646C762.0909671760394,878.231628547529,800.8349780378765,803.2437639270396,772.1174196586802,763.7783235332888C743.399861279484,724.312883139538,627.9367632971627,723.9244186549846,619.194649724823,675.9668840566599C610.4525361524833,628.0093494583351,694.3114728747743,527.5975082210632,719.6647382246422,476.03311594334036C745.0180035745101,424.4687236656175,756.341698194804,381.3857822987025,771.3142418240303,366.5805303903226C786.2867854532566,351.77527848194273,772.2756492754086,400.17367573695867,809.4999999999998,387.20160449306104C846.724350724591,374.2295332491634,949.0967840231435,286.6274724032079,994.6603461715778,288.7481029269368C1040.223908320012,290.8687334506657,1040.1707676884396,399.8299563822609,1082.8813728906052,399.9253876354343C1125.591978092771,400.02081888860766,1213.4742817636766,282.895961910787,1250.9239773845716,289.32069044597705C1288.3736730054666,295.7454189811671,1292.9002095134038,395.8605405875708,1307.5795466159752,438.47375884657464C1322.2588837185467,481.08697710557846,1330.8333333333333,509.8613140203807,1339,544.9999999999999C1347.1666666666667,580.138685979619,1368.4255503852132,615.5964713212651,1356.5795466159752,649.3058747242898" fill="#000000"/></svg>