<svg width="1920" height="1080" viewBox="0 0 1920 1080" xmlns="http://www.w3.org/2000/svg"><rect width="1920" height="1080" fill="#cccccc"/><path d="M1345,596.9999999999999C1335.358815547866,651.0087470511417,1321.0784436724098,683.2463562277546,1301.7324399031718,723.5262411534251C1282.3864361339338,763.8061260790955,1260.8033256877206,819.2594460434071,1228.9239773845718,838.6793095540229C1197.044629081423,858.0991730646386,1150.7380747059656,822.0010220156064,1110.4563500842787,840.0454222171197C1070.1746254625918,858.089822418633,1037.7263546684965,942.5890187127573,987.2336296544499,946.9457107631025C936.7409046404035,951.3024028134478,861.9358337575093,904.7488312421212,807.5000000000001,866.1855745191914C753.064166242491,827.6223177962615,673.1439389256287,754.3981293187795,660.6186271093948,715.5661704255238C648.0933152931608,676.734211532268,741.9187920000248,674.336776583362,732.3481291025962,633.1938211596569C722.7774662051676,592.0508657359517,600.7435566727639,503.9177582664567,603.1946497248229,468.7084378832927C605.6457427768818,433.49911750012865,715.00379570242,450.7885958871075,747.0546874149495,421.9378988606728C779.105579127479,393.08720183423816,766.2088101900531,306.33750725885636,795.4999999999998,295.60425572468455C824.7911898099464,284.87100419051274,871.6187056855167,375.0801312115366,922.8018262746297,357.53838965564205C973.9849468637426,339.9966480997475,1067.4963504823197,186.19501871647506,1102.5987235346772,190.35380638931736C1137.7010965870347,194.51259406215965,1090.5859274085585,347.637790283153,1133.4160645887748,382.49111569269587C1176.246201768991,417.34444110223876,1324.315557380771,363.7222781286906,1359.5795466159752,399.47375884657464C1394.8435358511795,435.22523956445866,1354.641184452134,542.9912529488581,1345,596.9999999999999C1335.358815547866,651.0087470511417,1321.0784436724098,683.2463562277546,1301.7324399031718,723.5262411534251" fill="#000000"/></svg>